<svg xmlns="http://www.w3.org/2000/svg" width="24" height="24" viewBox="0 0 24 24" fill="none" stroke="currentColor" stroke-width="2" stroke-linecap="round" stroke-linejoin="round" class="lucide lucide-cake">
  <path d="M20 21v-8a2 2 0 0 0-2-2H6a2 2 0 0 0-2 2v8" fill="#ff6b6b" stroke="#000"/>
  <path d="M4 16.5c0-1 .938-1.5 2.5-1.5s2.5.5 2.5 1.5-.938 1.5-2.5 1.5-2.5-.5-2.5-1.5Z" stroke="#000"/>
  <path d="M9.5 16.5c0-1 .938-1.5 2.5-1.5s2.5.5 2.5 1.5-.938 1.5-2.5 1.5-2.5-.5-2.5-1.5Z" stroke="#000"/>
  <path d="M15 16.5c0-1 .938-1.5 2.5-1.5s2.5.5 2.5 1.5-.938 1.5-2.5 1.5-2.5-.5-2.5-1.5Z" stroke="#000"/>
  <path d="M2 21h20" stroke="#000"/>
  <path d="M7 8v3" stroke="#000"/>
  <path d="M12 8v3" stroke="#000"/>
  <path d="M17 8v3" stroke="#000"/>
  <path d="M7 4h.01" stroke="#000"/>
  <path d="M12 4h.01" stroke="#000"/>
  <path d="M17 4h.01" stroke="#000"/>
</svg>

